<?xml version="1.0" standalone="no"?>
<!DOCTYPE svg PUBLIC "-//W3C//DTD SVG 1.1//EN"
"http://www.w3.org/Graphics/SVG/1.1/DTD/svg11.dtd">

<svg width="293" height="383" view_box="0 0 293 383"
xmlns="http://www.w3.org/2000/svg"
xmlns:link="http://www.w3.org/1999/xlink">\n\n<desc>Généré par Mocodo 2.3.7 le Mon, 19 Oct 2020 02:18:24</desc>

<rect id="frame" x="0" y="0" width="293" height="383" fill="#ffffbf" stroke="none" stroke-width="0"/>

<!-- Association HAS -->
<line x1="148" y1="111" x2="244" y2="111" stroke="#f46d43" stroke-width="2"/>
<text x="197" y="128.0" fill="#3288bd" font-family="Verdana" font-size="12">1,N</text>
<line x1="244" y1="306" x2="244" y2="111" stroke="#f46d43" stroke-width="2"/>
<text x="249.0" y="247" fill="#3288bd" font-family="Verdana" font-size="12">1,N</text>
<g id="association-HAS">
	<path d="M 250 86 a 14 14 90 0 1 14 14 V 111 h -40 V 100 a 14 14 90 0 1 14 -14" fill="#fdae61" stroke="#fdae61" stroke-width="0"/>
	<path d="M 264 111.0 v 11 a 14 14 90 0 1 -14 14 H 238 a 14 14 90 0 1 -14 -14 V 111.0 H 40" fill="#fee08b" stroke="#fee08b" stroke-width="0"/>
	<rect x="224" y="86" width="40" height="50" fill="none" rx="14" stroke="#f46d43" stroke-width="2"/>
	<line x1="224" y1="111" x2="264" y2="111" stroke="#f46d43" stroke-width="1"/>
	<text x="231" y="103.7" fill="#000000" font-family="Verdana" font-size="12">HAS</text>
</g>

<!-- Association OWN -->
<line x1="148" y1="111" x2="49" y2="111" stroke="#f46d43" stroke-width="2"/>
<text x="77" y="128.0" fill="#3288bd" font-family="Verdana" font-size="12">0,N</text>
<line x1="49" y1="306" x2="49" y2="111" stroke="#f46d43" stroke-width="2"/>
<text x="54.0" y="230" fill="#3288bd" font-family="Verdana" font-size="12">0,N</text>
<g id="association-OWN">
	<path d="M 58 86 a 14 14 90 0 1 14 14 V 111 h -46 V 100 a 14 14 90 0 1 14 -14" fill="#fdae61" stroke="#fdae61" stroke-width="0"/>
	<path d="M 72 111.0 v 11 a 14 14 90 0 1 -14 14 H 40 a 14 14 90 0 1 -14 -14 V 111.0 H 46" fill="#fee08b" stroke="#fee08b" stroke-width="0"/>
	<rect x="26" y="86" width="46" height="50" fill="none" rx="14" stroke="#f46d43" stroke-width="2"/>
	<line x1="26" y1="111" x2="72" y2="111" stroke="#f46d43" stroke-width="1"/>
	<text x="33" y="103.7" fill="#000000" font-family="Verdana" font-size="12">OWN</text>
</g>

<!-- Entity TYPE -->
<g id="entity-TYPE">
	<g id="frame-TYPE">
		<rect x="204" y="255" width="80" height="25" fill="#abdda4" stroke="#abdda4" stroke-width="0"/>
		<rect x="204" y="280.0" width="80" height="77" fill="#e6f598" stroke="#e6f598" stroke-width="0"/>
		<rect x="204" y="255" width="80" height="102" fill="none" stroke="#66c2a5" stroke-width="2"/>
		<line x1="204" y1="280" x2="284" y2="280" stroke="#66c2a5" stroke-width="1"/>
	</g>
	<text x="228" y="272.7" fill="#000000" font-family="Verdana" font-size="12">TYPE</text>
	<text x="209" y="297.7" fill="#000000" font-family="Verdana" font-size="12">name</text>
	<line x1="209" y1="300" x2="244" y2="300" stroke="#000000" stroke-width="1"/>
	<text x="209" y="314.8" fill="#000000" font-family="Verdana" font-size="12">color</text>
	<text x="209" y="331.8" fill="#000000" font-family="Verdana" font-size="12">created_at</text>
	<text x="209" y="348.8" fill="#000000" font-family="Verdana" font-size="12">updated_at</text>
</g>

<!-- Entity POKEMON -->
<g id="entity-POKEMON">
	<g id="frame-POKEMON">
		<rect x="104" y="9" width="88" height="25" fill="#abdda4" stroke="#abdda4" stroke-width="0"/>
		<rect x="104" y="34.0" width="88" height="179" fill="#e6f598" stroke="#e6f598" stroke-width="0"/>
		<rect x="104" y="9" width="88" height="204" fill="none" stroke="#66c2a5" stroke-width="2"/>
		<line x1="104" y1="34" x2="192" y2="34" stroke="#66c2a5" stroke-width="1"/>
	</g>
	<text x="117" y="26.7" fill="#000000" font-family="Verdana" font-size="12">POKEMON</text>
	<text x="109" y="51.7" fill="#000000" font-family="Verdana" font-size="12">name</text>
	<line x1="109" y1="54" x2="144" y2="54" stroke="#000000" stroke-width="1"/>
	<text x="109" y="68.7" fill="#000000" font-family="Verdana" font-size="12">pv</text>
	<text x="109" y="85.7" fill="#000000" font-family="Verdana" font-size="12">attack</text>
	<text x="109" y="102.7" fill="#000000" font-family="Verdana" font-size="12">defense</text>
	<text x="109" y="119.8" fill="#000000" font-family="Verdana" font-size="12">attack_spe</text>
	<text x="109" y="136.8" fill="#000000" font-family="Verdana" font-size="12">defense_spe</text>
	<text x="109" y="153.8" fill="#000000" font-family="Verdana" font-size="12">speed</text>
	<text x="109" y="170.8" fill="#000000" font-family="Verdana" font-size="12">number</text>
	<text x="109" y="187.8" fill="#000000" font-family="Verdana" font-size="12">created_at</text>
	<text x="109" y="204.8" fill="#000000" font-family="Verdana" font-size="12">updated_at</text>
</g>

<!-- Entity USER -->
<g id="entity-USER">
	<g id="frame-USER">
		<rect x="9" y="238" width="80" height="25" fill="#abdda4" stroke="#abdda4" stroke-width="0"/>
		<rect x="9" y="263.0" width="80" height="111" fill="#e6f598" stroke="#e6f598" stroke-width="0"/>
		<rect x="9" y="238" width="80" height="136" fill="none" stroke="#66c2a5" stroke-width="2"/>
		<line x1="9" y1="263" x2="89" y2="263" stroke="#66c2a5" stroke-width="1"/>
	</g>
	<text x="32" y="255.7" fill="#000000" font-family="Verdana" font-size="12">USER</text>
	<text x="14" y="280.7" fill="#000000" font-family="Verdana" font-size="12">username</text>
	<line x1="14" y1="283" x2="75" y2="283" stroke="#000000" stroke-width="1"/>
	<text x="14" y="297.7" fill="#000000" font-family="Verdana" font-size="12">mail</text>
	<text x="14" y="314.8" fill="#000000" font-family="Verdana" font-size="12">password</text>
	<text x="14" y="331.8" fill="#000000" font-family="Verdana" font-size="12">role</text>
	<text x="14" y="348.8" fill="#000000" font-family="Verdana" font-size="12">created_at</text>
	<text x="14" y="365.8" fill="#000000" font-family="Verdana" font-size="12">updated_at</text>
</g>
</svg>