<?xml version="1.0" standalone="no"?>
<!DOCTYPE svg PUBLIC "-//W3C//DTD SVG 1.1//EN"
"http://www.w3.org/Graphics/SVG/1.1/DTD/svg11.dtd">

<svg width="293" height="383" view_box="0 0 293 383"
xmlns="http://www.w3.org/2000/svg"
xmlns:link="http://www.w3.org/1999/xlink">\n\n<desc>Généré par Mocodo 2.3.7 le Wed, 14 Oct 2020 12:13:35</desc>

<rect id="frame" x="0" y="0" width="293" height="383" fill="#f7f7f7" stroke="none" stroke-width="0"/>

<!-- Association HAS -->
<line x1="145" y1="272" x2="49" y2="272" stroke="#9970ab" stroke-width="2"/>
<text x="74" y="289.0" fill="#1b7837" font-family="Verdana" font-size="12">1,N</text>
<line x1="49" y1="77" x2="49" y2="272" stroke="#9970ab" stroke-width="2"/>
<text x="54.0" y="145" fill="#1b7837" font-family="Verdana" font-size="12">1,N</text>
<g id="association-HAS">
	<path d="M 55 247 a 14 14 90 0 1 14 14 V 272 h -40 V 261 a 14 14 90 0 1 14 -14" fill="#c2a5cf" stroke="#c2a5cf" stroke-width="0"/>
	<path d="M 69 272.0 v 11 a 14 14 90 0 1 -14 14 H 43 a 14 14 90 0 1 -14 -14 V 272.0 H 40" fill="#e7d4e8" stroke="#e7d4e8" stroke-width="0"/>
	<rect x="29" y="247" width="40" height="50" fill="none" rx="14" stroke="#9970ab" stroke-width="2"/>
	<line x1="29" y1="272" x2="69" y2="272" stroke="#9970ab" stroke-width="1"/>
	<text x="36" y="264.7" fill="#000000" font-family="Verdana" font-size="12">HAS</text>
</g>

<!-- Association OWN -->
<line x1="145" y1="272" x2="244" y2="272" stroke="#9970ab" stroke-width="2"/>
<text x="194" y="289.0" fill="#1b7837" font-family="Verdana" font-size="12">1,N</text>
<line x1="244" y1="77" x2="244" y2="272" stroke="#9970ab" stroke-width="2"/>
<text x="249.0" y="162" fill="#1b7837" font-family="Verdana" font-size="12">1,N</text>
<g id="association-OWN">
	<path d="M 253 247 a 14 14 90 0 1 14 14 V 272 h -46 V 261 a 14 14 90 0 1 14 -14" fill="#c2a5cf" stroke="#c2a5cf" stroke-width="0"/>
	<path d="M 267 272.0 v 11 a 14 14 90 0 1 -14 14 H 235 a 14 14 90 0 1 -14 -14 V 272.0 H 46" fill="#e7d4e8" stroke="#e7d4e8" stroke-width="0"/>
	<rect x="221" y="247" width="46" height="50" fill="none" rx="14" stroke="#9970ab" stroke-width="2"/>
	<line x1="221" y1="272" x2="267" y2="272" stroke="#9970ab" stroke-width="1"/>
	<text x="228" y="264.7" fill="#000000" font-family="Verdana" font-size="12">OWN</text>
</g>

<!-- Entity POKEMON -->
<g id="entity-POKEMON">
	<g id="frame-POKEMON">
		<rect x="101" y="170" width="88" height="25" fill="#a6dba0" stroke="#a6dba0" stroke-width="0"/>
		<rect x="101" y="195.0" width="88" height="179" fill="#d9f0d3" stroke="#d9f0d3" stroke-width="0"/>
		<rect x="101" y="170" width="88" height="204" fill="none" stroke="#5aae61" stroke-width="2"/>
		<line x1="101" y1="195" x2="189" y2="195" stroke="#5aae61" stroke-width="1"/>
	</g>
	<text x="114" y="187.7" fill="#000000" font-family="Verdana" font-size="12">POKEMON</text>
	<text x="106" y="212.7" fill="#000000" font-family="Verdana" font-size="12">name</text>
	<line x1="106" y1="215" x2="141" y2="215" stroke="#000000" stroke-width="1"/>
	<text x="106" y="229.7" fill="#000000" font-family="Verdana" font-size="12">pv</text>
	<text x="106" y="246.7" fill="#000000" font-family="Verdana" font-size="12">attack</text>
	<text x="106" y="263.7" fill="#000000" font-family="Verdana" font-size="12">defense</text>
	<text x="106" y="280.8" fill="#000000" font-family="Verdana" font-size="12">attack_spe</text>
	<text x="106" y="297.8" fill="#000000" font-family="Verdana" font-size="12">defense_spe</text>
	<text x="106" y="314.8" fill="#000000" font-family="Verdana" font-size="12">speed</text>
	<text x="106" y="331.8" fill="#000000" font-family="Verdana" font-size="12">number</text>
	<text x="106" y="348.8" fill="#000000" font-family="Verdana" font-size="12">created_at</text>
	<text x="106" y="365.8" fill="#000000" font-family="Verdana" font-size="12">updated_at</text>
</g>

<!-- Entity TYPE -->
<g id="entity-TYPE">
	<g id="frame-TYPE">
		<rect x="9" y="26" width="80" height="25" fill="#a6dba0" stroke="#a6dba0" stroke-width="0"/>
		<rect x="9" y="51.0" width="80" height="77" fill="#d9f0d3" stroke="#d9f0d3" stroke-width="0"/>
		<rect x="9" y="26" width="80" height="102" fill="none" stroke="#5aae61" stroke-width="2"/>
		<line x1="9" y1="51" x2="89" y2="51" stroke="#5aae61" stroke-width="1"/>
	</g>
	<text x="33" y="43.7" fill="#000000" font-family="Verdana" font-size="12">TYPE</text>
	<text x="14" y="68.7" fill="#000000" font-family="Verdana" font-size="12">name</text>
	<line x1="14" y1="71" x2="49" y2="71" stroke="#000000" stroke-width="1"/>
	<text x="14" y="85.8" fill="#000000" font-family="Verdana" font-size="12">color</text>
	<text x="14" y="102.8" fill="#000000" font-family="Verdana" font-size="12">created_at</text>
	<text x="14" y="119.8" fill="#000000" font-family="Verdana" font-size="12">updated_at</text>
</g>

<!-- Entity USER -->
<g id="entity-USER">
	<g id="frame-USER">
		<rect x="204" y="9" width="80" height="25" fill="#a6dba0" stroke="#a6dba0" stroke-width="0"/>
		<rect x="204" y="34.0" width="80" height="111" fill="#d9f0d3" stroke="#d9f0d3" stroke-width="0"/>
		<rect x="204" y="9" width="80" height="136" fill="none" stroke="#5aae61" stroke-width="2"/>
		<line x1="204" y1="34" x2="284" y2="34" stroke="#5aae61" stroke-width="1"/>
	</g>
	<text x="227" y="26.7" fill="#000000" font-family="Verdana" font-size="12">USER</text>
	<text x="209" y="51.7" fill="#000000" font-family="Verdana" font-size="12">username</text>
	<line x1="209" y1="54" x2="270" y2="54" stroke="#000000" stroke-width="1"/>
	<text x="209" y="68.7" fill="#000000" font-family="Verdana" font-size="12">mail</text>
	<text x="209" y="85.8" fill="#000000" font-family="Verdana" font-size="12">password</text>
	<text x="209" y="102.8" fill="#000000" font-family="Verdana" font-size="12">role</text>
	<text x="209" y="119.8" fill="#000000" font-family="Verdana" font-size="12">created_at</text>
	<text x="209" y="136.8" fill="#000000" font-family="Verdana" font-size="12">updated_at</text>
</g>
</svg>